{"title":"Death Race 2 2010.720p.BRRip.x264.Feel-Free","uid":6070294,"size":1994673345,"categoryP":"video","categoryS":"hd___movies","magnet":"?xt=urn:btih:2862f10505c6dda189185bedb570f0de21b177c7&amp;dn=Death+Race+2+2010.720p.BRRip.x264.Feel-Free&amp;tr=udp%3A%2F%2Ftracker.openbittorrent.com%3A80&amp;tr=udp%3A%2F%2Fopen.demonii.com%3A1337&amp;tr=udp%3A%2F%2Ftracker.coppersurfer.tk%3A6969&amp;tr=udp%3A%2F%2Fexodus.desync.com%3A6969","seeders":0,"leechers":0,"uploader":"neon","files":-1,"time":1293583816,"description":"Genre:Action | Sci-Fi | Thriller\nLanguage:English\n &lt;a href=&quot; http://www.imdb.com/title/tt1500491/&quot; rel=&quot;nofollow&quot; target=&quot;_NEW&quot;&gt; http://www.imdb.com/title/tt1500491/&lt;/a&gt;\nSource:BluRay.x264-AVCHD\nSubtitles:Romana\n\n\nFormat : Matroska\nFile size : 1.85 GiB\nDuration : 1h 40mn\nOverall bit rate : 2 643 Kbps\n\n\nVideo\nFormat settings, CABAC : Yes\nFormat settings, ReFrames : 4 frames\nCodec ID : V_MPEG4/ISO/AVC\nDuration : 1h 40mn\nBit rate : 2 300 Kbps\nWidth : 1 280 pixels\nHeight : 720 pixels\nDisplay aspect ratio : 16:9\nFrame rate mode : Variable\nFrame rate : 23.976 fps\nColor space : YUV\nChroma subsampling : 4:2:0\nBit depth : 8 bits\nScan type : Progressive\nBits/(Pixel*Frame) : 0.104\nStream size : 1.55 GiB (83%)\nWriting library : x264\n\nAudio\nID : 2\nFormat : AC-3\nFormat/Info : Audio Coding 3\nMode extension : CM (complete main)\nCodec ID : A_AC3\nDuration : 1h 40mn\nBit rate mode : Constant\nBit rate : 384 Kbps\nChannel(s) : 6 channels\nChannel positions : Front: L C R, Side: L R, LFE\nSampling rate : 48.0 KHz\nBit depth : 16 bits\nVideo delay : -1mn 5s\nStream size : 276 MiB (15%)\nLanguage : English\n\n\nPlot:\nAn origin story for convicted cop killer Frankenstein.\n &lt;a href=&quot;\nhttp://img210.imageshack.us/img210/8647/vlcsnap2010122900h51m18.png&quot; rel=&quot;nofollow&quot; target=&quot;_NEW&quot;&gt;\nhttp://img210.imageshack.us/img210/8647/vlcsnap2010122900h51m18.png&lt;/a&gt; &lt;a href=&quot;\nhttp://img717.imageshack.us/img717/7803/vlcsnap2010122900h50m37.png&quot; rel=&quot;nofollow&quot; target=&quot;_NEW&quot;&gt;\nhttp://img717.imageshack.us/img717/7803/vlcsnap2010122900h50m37.png&lt;/a&gt; &lt;a href=&quot;\nhttp://img413.imageshack.us/img413/5853/vlcsnap2010122900h53m25.png&quot; rel=&quot;nofollow&quot; target=&quot;_NEW&quot;&gt;\nhttp://img413.imageshack.us/img413/5853/vlcsnap2010122900h53m25.png&lt;/a&gt;\n","torrent":{"xt":"urn:btih:2862f10505c6dda189185bedb570f0de21b177c7","amp;dn":"Death+Race+2+2010.720p.BRRip.x264.Feel-Free","amp;tr":["udp%3A%2F%2Ftracker.openbittorrent.com%3A80","udp%3A%2F%2Fopen.demonii.com%3A1337","udp%3A%2F%2Ftracker.coppersurfer.tk%3A6969","udp%3A%2F%2Fexodus.desync.com%3A6969"],"infoHash":"2862f10505c6dda189185bedb570f0de21b177c7","infoHashBuffer":{"type":"Buffer","data":[40,98,241,5,5,198,221,161,137,24,91,237,181,112,240,222,33,177,119,199]},"announce":[],"urlList":[]}}